<svg width="33" height="33" viewBox="0 0 33 33" fill="none" xmlns="http://www.w3.org/2000/svg">
<path fill-rule="evenodd" clip-rule="evenodd" d="M20.6003 26.9638C21.2245 26.0013 21.8501 24.7637 22.2998 23.1756C23.3379 23.5744 24.0501 24.0501 24.4874 24.4255C23.3673 25.5381 22.0255 26.4024 20.5494 26.9624H20.6003V26.9638ZM8.50025 24.4131C8.96225 24.0377 9.66213 23.5744 10.7003 23.1619C11.1623 24.7624 11.7631 25.9999 12.3997 26.9624C10.9455 26.3903 9.62596 25.5222 8.525 24.4131H8.50025ZM23.1248 15.2501C23.0863 14.1364 22.9735 13.024 22.7879 11.9254C24.1629 11.4249 25.1625 10.8254 25.8624 10.2754C26.8383 11.7693 27.4427 13.475 27.6251 15.2501H23.1248ZM10.7869 9.47512C10.0593 9.20705 9.37359 8.83666 8.7505 8.37512C9.80432 7.36732 11.0436 6.57349 12.3997 6.03762C11.8126 6.91212 11.2379 8.03687 10.7745 9.47512H10.7883H10.7869ZM20.6003 6.03762C21.9573 6.57176 23.1969 7.36579 24.2495 8.37512C23.6257 8.8355 22.9402 9.2058 22.2131 9.47512C21.8405 8.25672 21.293 7.09883 20.5879 6.03762H20.6003ZM20.35 12.5373C20.4738 13.3623 20.6003 14.2505 20.625 15.2501H12.375C12.4121 14.2505 12.4987 13.3499 12.6252 12.5373C15.1759 12.9965 17.787 12.9965 20.3376 12.5373H20.35ZM16.5 10.3744C15.2488 10.3744 14.1488 10.2754 13.2137 10.1255C14.212 7.04962 15.763 5.81212 16.5 5.37488C17.2123 5.81212 18.7756 7.062 19.7752 10.1255C18.6918 10.2952 17.5966 10.3784 16.5 10.3744ZM7.12525 10.2754C8.05993 10.986 9.10198 11.543 10.2121 11.9254C10.0266 13.025 9.91402 14.1357 9.87525 15.2501H5.324C5.52142 13.4706 6.14341 11.7645 7.13763 10.2754H7.12525ZM5.33775 17.7499H9.87525C9.92475 18.8251 9.999 19.8124 10.1502 20.713C8.9986 21.1086 7.92402 21.7003 6.974 22.462C6.07493 21.0362 5.51079 19.4251 5.324 17.7499H5.33775ZM16.5 19.7505C15.0013 19.7505 13.7129 19.8743 12.5881 20.075C12.4782 19.3045 12.4071 18.5289 12.375 17.7513H20.625C20.5879 18.5872 20.5246 19.3738 20.4256 20.075C19.1304 19.8409 17.8162 19.7281 16.5 19.7381V19.7505ZM16.5 27.6251C15.7506 27.1755 14.1006 25.8376 13.0996 22.5005C14.2235 22.3173 15.3614 22.2336 16.5 22.2502C17.8131 22.2502 18.9379 22.3369 19.9128 22.5005C18.9131 25.8748 17.2631 27.1755 16.5124 27.6251H16.5ZM26.0246 22.4496C25.0758 21.6869 24.0015 21.0951 22.8497 20.7006C23.0004 19.7234 23.0923 18.7381 23.1248 17.7499H27.676C27.4874 19.4208 26.9219 21.0275 26.0246 22.4496ZM16.5 2.75C8.90588 2.75 2.75 8.90588 2.75 16.5C2.75 24.0941 8.90588 30.25 16.5 30.25C24.0941 30.25 30.25 24.0941 30.25 16.5C30.25 8.90588 24.0941 2.75 16.5 2.75Z" fill="#49830A"/>
</svg>
